<?xml version="1.0" encoding="utf-8"?>
<!-- Generator: Adobe Illustrator 25.2.3, SVG Export Plug-In . SVG Version: 6.00 Build 0)  -->
<svg version="1.1" id="Calque_1" xmlns="http://www.w3.org/2000/svg" xmlns:xlink="http://www.w3.org/1999/xlink" x="0px" y="0px"
	 viewBox="0 0 800 370" style="enable-background:new 0 0 800 370;" xml:space="preserve">
<style type="text/css">
	.st0{fill:#4F2F42;}
	.st1{fill:#9C603D;}
	.st2{fill:#2F4F4F;}
	.st3{fill:#4C9C9C;}
	.st4{fill:#6B9C9C;}
	.st5{fill:#4F3B2F;}
	.st6{fill:#FFFFFF;}
	.st7{fill:#CC2E2E;}
	.st8{fill:#62FA01;}
	.st9{fill:#B5B018;}
	.st10{fill:#1F8FA7;}
	.st11{fill:#213472;}
	.st12{fill:#080647;}
	.st13{opacity:0.9;fill:#2734AF;}
	.st14{opacity:0.9;}
	.st15{opacity:0.9;fill:#1C418C;}
</style>
<g>
	<rect x="-3" y="-8" class="st2" width="807" height="386"/>
</g>
<g>
	<g>
		<path class="st6" d="M151.45,107.37l4.6-3.01l15.92,24.35c0.71,1.09,1.34,1.69,1.89,1.79s1.07-0.01,1.57-0.34
			c0.53-0.35,1.01-0.76,1.43-1.24c0.42-0.48,0.77-0.88,1.03-1.21l3.02,3.16c-0.49,0.72-1.13,1.47-1.92,2.27s-1.55,1.43-2.28,1.91
			c-1.59,1.04-3.11,1.41-4.57,1.1c-1.46-0.31-2.7-1.24-3.72-2.81L151.45,107.37z"/>
		<path class="st6" d="M195.55,122.75c-1.73,1.13-3.47,1.85-5.23,2.14c-1.76,0.3-3.48,0.26-5.16-0.12
			c-1.68-0.38-3.24-1.07-4.66-2.05c-1.42-0.99-2.62-2.23-3.6-3.72c-1.35-2.07-2.12-4.27-2.29-6.6s0.27-4.57,1.32-6.71
			c1.05-2.14,2.69-3.94,4.92-5.4c2.31-1.51,4.64-2.29,6.98-2.34c2.34-0.05,4.52,0.47,6.54,1.55s3.67,2.59,4.93,4.53
			c0.22,0.33,0.41,0.65,0.57,0.96c0.16,0.31,0.28,0.56,0.36,0.74l-17.58,11.49c0.98,1.2,2.1,2.08,3.33,2.63
			c1.23,0.55,2.52,0.77,3.84,0.67c1.33-0.1,2.54-0.51,3.62-1.22c1.26-0.82,2.23-1.9,2.94-3.23c0.7-1.33,0.92-2.63,0.65-3.89
			l4.67-1.44c0.22,1.37,0.12,2.8-0.3,4.29c-0.42,1.49-1.12,2.9-2.1,4.24C198.34,120.57,197.09,121.74,195.55,122.75z M180.61,114.24
			l13.22-8.65c-0.93-1.19-2.01-2.05-3.21-2.58c-1.21-0.54-2.47-0.75-3.8-0.65c-1.33,0.1-2.56,0.53-3.7,1.28
			c-1.17,0.77-2.07,1.73-2.68,2.89c-0.61,1.16-0.92,2.41-0.93,3.74S179.87,112.92,180.61,114.24z"/>
		<path class="st6" d="M219.7,106.96c-1.84,1.2-3.79,2.04-5.83,2.5c-2.05,0.46-4.05,0.48-6.01,0.04l-0.32-4.15
			c1.99,0.25,3.79,0.22,5.4-0.1c1.61-0.31,3.04-0.88,4.29-1.7c1.31-0.86,2.21-1.78,2.69-2.78c0.48-1,0.42-1.96-0.19-2.89
			c-0.45-0.69-1-1.06-1.65-1.11c-0.65-0.05-1.45,0.06-2.41,0.33s-2.08,0.61-3.37,1.02c-1.84,0.53-3.47,0.9-4.88,1.09
			c-1.41,0.19-2.62,0.09-3.64-0.31c-1.02-0.4-1.91-1.18-2.67-2.34c-0.9-1.38-1.32-2.81-1.24-4.28c0.07-1.47,0.58-2.9,1.53-4.29
			c0.95-1.39,2.27-2.64,3.97-3.75c1.59-1.04,3.22-1.76,4.89-2.15c1.67-0.4,3.36-0.42,5.07-0.06l0,4.3
			c-1.52-0.24-2.93-0.24-4.23,0.02c-1.31,0.26-2.54,0.77-3.72,1.53c-0.64,0.42-1.23,0.91-1.76,1.47s-0.87,1.18-1.03,1.85
			c-0.16,0.67,0,1.37,0.47,2.09c0.4,0.61,0.88,0.97,1.46,1.09c0.57,0.12,1.28,0.08,2.11-0.11c0.83-0.19,1.84-0.45,3.01-0.79
			c2.01-0.64,3.77-1.11,5.3-1.4c1.52-0.29,2.86-0.27,4.01,0.06c1.15,0.33,2.16,1.16,3.03,2.48c1.35,2.07,1.63,4.21,0.83,6.43
			C224.03,103.28,222.32,105.25,219.7,106.96z"/>
	</g>
</g>
<g>
	<path class="st6" d="M215.43,188.11v-63.9h27.09c2.94,0,5.65,0.6,8.15,1.8c2.49,1.2,4.63,2.82,6.44,4.86
		c1.8,2.04,3.19,4.32,4.19,6.84c0.99,2.52,1.48,5.1,1.48,7.74c0,3.54-0.81,6.95-2.43,10.22c-1.62,3.27-3.92,5.93-6.88,7.96
		c-2.97,2.04-6.44,3.06-10.4,3.06h-15.21v21.42H215.43z M227.85,155.8h14.4c1.56,0,2.94-0.42,4.14-1.26
		c1.2-0.84,2.14-2.05,2.83-3.65c0.69-1.59,1.04-3.4,1.04-5.45c0-2.22-0.41-4.09-1.22-5.62c-0.81-1.53-1.86-2.7-3.15-3.51
		c-1.29-0.81-2.69-1.21-4.19-1.21h-13.86V155.8z"/>
	<path class="st6" d="M268.97,145.54l1.98-10.98h-3.51v-12.15h12.06v12.33l-3.15,10.8H268.97z"/>
	<path class="st6" d="M316.58,185.77c-1.08,0.48-2.33,0.98-3.73,1.48c-1.41,0.51-2.94,0.93-4.59,1.26c-1.65,0.33-3.32,0.5-4.99,0.5
		c-2.28,0-4.35-0.39-6.21-1.16c-1.86-0.77-3.35-2.01-4.46-3.7c-1.11-1.69-1.67-3.91-1.67-6.64v-26.93h-6.12v-9.18h6.12v-15.3h12.15
		v15.3h9.9v9.18h-9.9v22.83c0.06,1.6,0.51,2.77,1.35,3.51c0.84,0.74,1.92,1.11,3.24,1.11c1.2,0,2.4-0.23,3.6-0.67
		c1.2-0.45,2.19-0.85,2.97-1.22L316.58,185.77z"/>
	<path class="st6" d="M325.85,134.29v-11.88h11.97v11.88H325.85z M325.85,188.11v-47.16h11.97v47.16H325.85z"/>
</g>
<g>
	<rect x="325.4" y="122.25" class="st7" width="12.5" height="12.5"/>
</g>
<g>
	<rect x="360.5" y="165.75" class="st8" width="10.9" height="10.9"/>
</g>
<g>
	
		<rect x="258.85" y="189.75" transform="matrix(0.3133 -0.9496 0.9496 0.3133 -3.8861 385.0256)" class="st9" width="10.9" height="10.9"/>
</g>
<g>
	
		<rect x="185.4" y="149.69" transform="matrix(0.7561 -0.6544 0.6544 0.7561 -55.3128 163.4482)" class="st10" width="12.5" height="12.5"/>
</g>
<g>
	<path class="st0" d="M466.65,111c-43.89,0-79.47,19.59-79.47,43.75c0,15.57,14.78,29.24,37.04,37c-7.59,2.46-15.67,3.96-23.89,4.48
		c-1.55,0.1-1.8,1.63-0.32,1.97c15.56,3.59,31.42,3.12,43.8-1.53c7.24,1.19,14.9,1.84,22.84,1.84c43.89,0,79.47-19.59,79.47-43.75
		S510.55,111,466.65,111z"/>
	<path class="st6" d="M466.65,111c-6.43,0.05-12.87,0.46-19.24,1.4c-6.36,0.93-12.65,2.35-18.78,4.25c-3.06,0.98-6.08,2.06-9.03,3.3
		c-2.95,1.26-5.83,2.65-8.64,4.17c-5.58,3.09-10.9,6.8-15.15,11.55c-4.25,4.69-7.43,10.53-8.02,16.85
		c-0.59,6.32,1.53,12.67,5.22,17.8c1.87,2.56,3.97,4.97,6.4,7.05l0.89,0.8l0.94,0.74l1.88,1.48l1.96,1.37l0.98,0.68l1.02,0.63
		c5.42,3.39,11.27,6.07,17.32,8.19l1.4,0.49l-1.41,0.46c-5.75,1.86-11.68,3.15-17.67,3.9c-1.5,0.18-3,0.35-4.5,0.46l-1.13,0.08
		c-0.37,0.03-0.79,0.04-1.02,0.1c-0.27,0.06-0.46,0.22-0.51,0.36c-0.04,0.13-0.02,0.26,0.18,0.39c0.09,0.07,0.22,0.12,0.35,0.15
		c0.15,0.04,0.36,0.08,0.53,0.12l1.1,0.23c0.73,0.16,1.46,0.32,2.2,0.44c1.47,0.28,2.94,0.52,4.42,0.73
		c5.92,0.82,11.92,1.07,17.87,0.64c5.95-0.45,11.86-1.58,17.44-3.65l0.13-0.05l0.13,0.02c9.04,1.49,18.22,2.05,27.38,1.75
		c9.15-0.29,18.29-1.45,27.19-3.59c8.89-2.15,17.58-5.3,25.5-9.86c3.94-2.29,7.71-4.91,11.01-8.05c1.69-1.53,3.17-3.26,4.58-5.03
		c1.35-1.82,2.57-3.74,3.55-5.77c0.94-2.05,1.68-4.2,2.11-6.41c0.39-2.22,0.49-4.48,0.31-6.73c-0.23-2.24-0.77-4.44-1.55-6.56
		c-0.81-2.11-1.9-4.1-3.12-6c-2.56-3.74-5.76-7.04-9.36-9.83c-3.58-2.82-7.51-5.18-11.57-7.27c-8.14-4.17-16.93-7.05-25.89-8.98
		c-4.49-0.95-9.03-1.66-13.6-2.13C475.84,111.26,471.25,111.03,466.65,111z M466.65,111c4.6,0,9.19,0.2,13.77,0.62
		c4.58,0.41,9.14,1.01,13.67,1.87c9.03,1.74,17.93,4.42,26.26,8.45c4.15,2.05,8.1,4.5,11.75,7.36c3.66,2.84,6.94,6.21,9.57,10.06
		c1.26,1.96,2.39,4.01,3.23,6.2c0.81,2.2,1.37,4.48,1.61,6.82c0.19,2.34,0.08,4.69-0.32,7c-0.45,2.3-1.21,4.53-2.19,6.65
		c-1.01,2.11-2.27,4.08-3.66,5.95c-1.45,1.82-2.97,3.59-4.69,5.15c-3.37,3.21-7.2,5.87-11.19,8.19c-8.03,4.62-16.8,7.79-25.76,9.97
		c-8.98,2.16-18.17,3.32-27.39,3.62c-9.22,0.3-18.47-0.27-27.57-1.76l0.26-0.03c-5.69,2.11-11.7,3.26-17.72,3.71
		c-6.03,0.44-12.1,0.19-18.08-0.64c-1.5-0.21-2.99-0.45-4.47-0.73c-0.74-0.13-1.48-0.29-2.22-0.45l-1.11-0.24
		c-0.19-0.04-0.35-0.07-0.57-0.13c-0.22-0.06-0.45-0.15-0.67-0.3c-0.45-0.26-0.78-0.97-0.54-1.56c0.23-0.57,0.74-0.87,1.19-0.98
		c0.5-0.12,0.84-0.1,1.21-0.13l1.12-0.08c1.49-0.12,2.98-0.28,4.46-0.46c5.93-0.75,11.8-2.02,17.48-3.86l-0.01,0.95
		c-6.1-2.14-12.02-4.85-17.52-8.29l-1.03-0.64l-1-0.7l-2-1.39l-1.91-1.51l-0.95-0.76l-0.9-0.82c-2.47-2.11-4.63-4.58-6.55-7.22
		c-3.8-5.27-6.02-11.89-5.4-18.47c0.31-3.27,1.28-6.46,2.73-9.39c1.45-2.94,3.36-5.62,5.54-8.04c4.36-4.86,9.75-8.64,15.41-11.77
		c5.71-3.08,11.79-5.37,17.98-7.18C440.87,112.5,453.79,111.02,466.65,111z"/>
</g>
<g>
	<path class="st8" d="M433.49,175.5c-2.75,0-4.99-2.24-4.99-4.99v-20.05c0-2.75,2.24-4.99,4.99-4.99h4.19
		c2.75,0,4.99,2.24,4.99,4.99v20.05c0,2.75-2.24,4.99-4.99,4.99H433.49z"/>
	<g>
		<path class="st6" d="M437.68,146.47c2.2,0,3.99,1.79,3.99,3.99v20.05c0,2.2-1.79,3.99-3.99,3.99h-4.19c-2.2,0-3.99-1.79-3.99-3.99
			v-20.05c0-2.2,1.79-3.99,3.99-3.99H437.68 M437.68,144.47h-4.19c-3.31,0-5.99,2.68-5.99,5.99v20.05c0,3.31,2.68,5.99,5.99,5.99
			h4.19c3.31,0,5.99-2.68,5.99-5.99v-20.05C443.67,147.15,440.99,144.47,437.68,144.47L437.68,144.47z"/>
	</g>
</g>
<g>
	<path class="st10" d="M476.19,175.5c-2.75,0-4.99-2.24-4.99-4.99v-28.59c0-2.75,2.24-4.99,4.99-4.99h4.19
		c2.75,0,4.99,2.24,4.99,4.99v28.59c0,2.75-2.24,4.99-4.99,4.99H476.19z"/>
	<g>
		<path class="st6" d="M480.38,137.93c2.2,0,3.99,1.79,3.99,3.99v28.59c0,2.2-1.79,3.99-3.99,3.99h-4.19c-2.2,0-3.99-1.79-3.99-3.99
			v-28.59c0-2.2,1.79-3.99,3.99-3.99H480.38 M480.38,135.93h-4.19c-3.31,0-5.99,2.68-5.99,5.99v28.59c0,3.31,2.68,5.99,5.99,5.99
			h4.19c3.31,0,5.99-2.68,5.99-5.99v-28.59C486.37,138.61,483.69,135.93,480.38,135.93L480.38,135.93z"/>
	</g>
</g>
<g>
	<path class="st9" d="M496.94,175.5c-2.75,0-4.99-2.24-4.99-4.99v-4.19c0-2.75,2.24-4.99,4.99-4.99h4.19c2.75,0,4.99,2.24,4.99,4.99
		v4.19c0,2.75-2.24,4.99-4.99,4.99H496.94z"/>
	<g>
		<path class="st6" d="M501.12,162.33c2.2,0,3.99,1.79,3.99,3.99v4.19c0,2.2-1.79,3.99-3.99,3.99h-4.19c-2.2,0-3.99-1.79-3.99-3.99
			v-4.19c0-2.2,1.79-3.99,3.99-3.99H501.12 M501.12,160.33h-4.19c-3.31,0-5.99,2.68-5.99,5.99v4.19c0,3.31,2.68,5.99,5.99,5.99h4.19
			c3.31,0,5.99-2.68,5.99-5.99v-4.19C507.11,163.01,504.43,160.33,501.12,160.33L501.12,160.33z"/>
	</g>
</g>
<g>
	<path class="st7" d="M454.84,175.5c-2.75,0-4.99-2.24-4.99-4.99v-36.52c0-2.75,2.24-4.99,4.99-4.99h4.19
		c2.75,0,4.99,2.24,4.99,4.99v36.52c0,2.75-2.24,4.99-4.99,4.99H454.84z"/>
	<g>
		<path class="st6" d="M459.03,130c2.2,0,3.99,1.79,3.99,3.99v36.52c0,2.2-1.79,3.99-3.99,3.99h-4.19c-2.2,0-3.99-1.79-3.99-3.99
			v-36.52c0-2.2,1.79-3.99,3.99-3.99H459.03 M459.03,128h-4.19c-3.31,0-5.99,2.68-5.99,5.99v36.52c0,3.31,2.68,5.99,5.99,5.99h4.19
			c3.31,0,5.99-2.68,5.99-5.99v-36.52C465.02,130.68,462.34,128,459.03,128L459.03,128z"/>
	</g>
</g>
<path class="st6" d="M235.81,259.34c-3.84,0-7.28-0.65-10.3-1.96c-3.03-1.3-5.62-3.08-7.79-5.34c-2.16-2.25-3.79-4.82-4.9-7.7
	c-1.11-2.88-1.67-5.92-1.67-9.12c0-3.32,0.55-6.44,1.67-9.35c1.11-2.91,2.73-5.47,4.86-7.7c2.13-2.22,4.73-3.98,7.79-5.25
	c3.06-1.28,6.48-1.91,10.26-1.91c3.9,0,7.37,0.64,10.4,1.91c3.03,1.28,5.62,3.03,7.79,5.25c2.16,2.22,3.81,4.79,4.95,7.7
	c1.14,2.91,1.71,6.02,1.71,9.35c0,3.2-0.57,6.25-1.71,9.12c-1.14,2.88-2.79,5.45-4.95,7.7c-2.16,2.26-4.76,4.04-7.79,5.34
	C243.08,258.69,239.65,259.34,235.81,259.34z M223.48,235.22c0,2.65,0.54,5.03,1.62,7.15c1.08,2.12,2.57,3.77,4.46,4.94
	c1.89,1.18,3.97,1.76,6.25,1.76s4.35-0.6,6.21-1.81c1.86-1.21,3.34-2.85,4.45-4.94c1.11-2.09,1.67-4.49,1.67-7.2
	c0-2.65-0.55-5.02-1.67-7.11s-2.6-3.74-4.45-4.94c-1.86-1.21-3.96-1.81-6.3-1.81c-2.28,0-4.35,0.6-6.21,1.81
	c-1.86,1.21-3.33,2.85-4.41,4.94C224.02,230.11,223.48,232.51,223.48,235.22z"/>
<path class="st6" d="M315.37,258.44h-12.06v-26.08c0-3.73-0.65-6.45-1.93-8.16c-1.29-1.71-3.14-2.57-5.54-2.57
	c-1.62,0-3.26,0.41-4.91,1.23c-1.65,0.82-3.12,1.95-4.41,3.38c-1.29,1.44-2.29,3.09-3.01,4.97v27.23h-11.97v-46.71h10.89v8.71
	c1.2-2.02,2.73-3.71,4.59-5.07c1.86-1.36,3.99-2.43,6.39-3.2c2.4-0.77,4.98-1.16,7.74-1.16c2.94,0,5.36,0.52,7.25,1.56
	c1.89,1.04,3.33,2.45,4.32,4.23s1.68,3.75,2.07,5.92c0.39,2.17,0.58,4.35,0.58,6.54V258.44z"/>
<path class="st6" d="M386.64,244.67c0-3.02,0.86-5.66,2.57-7.92s4.08-4.02,7.11-5.29c3.03-1.27,6.55-1.91,10.58-1.91
	c1.98,0,3.99,0.15,6.03,0.45c2.04,0.3,3.81,0.78,5.31,1.44v-2.6c0-2.89-0.87-5.12-2.61-6.72c-1.74-1.59-4.35-2.39-7.83-2.39
	c-2.64,0-5.13,0.45-7.47,1.35c-2.34,0.9-4.8,2.19-7.38,3.87l-3.78-7.83c3.06-2.1,6.22-3.65,9.5-4.64c3.27-0.99,6.71-1.48,10.31-1.48
	c6.72,0,11.95,1.64,15.71,4.92c3.75,3.28,5.62,8.03,5.62,14.24v14.82c0,1.24,0.22,2.13,0.67,2.66c0.45,0.53,1.18,0.86,2.21,0.98
	v9.81c-1.08,0.18-2.06,0.33-2.92,0.45c-0.87,0.12-1.61,0.15-2.21,0.09c-2.4,0-4.22-0.53-5.45-1.58c-1.23-1.05-1.97-2.35-2.21-3.92
	l-0.27-2.43c-2.1,2.64-4.68,4.68-7.74,6.12c-3.06,1.44-6.18,2.16-9.36,2.16c-3.12,0-5.93-0.65-8.42-1.96
	c-2.49-1.3-4.44-3.07-5.85-5.29C387.35,249.87,386.64,247.39,386.64,244.67z M415.98,246.92c0.66-0.58,1.2-1.26,1.62-2.02
	c0.42-0.76,0.63-1.4,0.63-1.93v-4.65c-1.44-0.58-3-1.04-4.68-1.36c-1.68-0.32-3.27-0.48-4.77-0.48c-3.12,0-5.69,0.66-7.69,1.97
	c-2.01,1.32-3.02,3.06-3.02,5.22c0,1.17,0.33,2.3,0.99,3.38c0.66,1.08,1.6,1.95,2.83,2.59c1.23,0.64,2.75,0.96,4.54,0.96
	s3.57-0.35,5.31-1.05C413.49,248.85,414.9,247.98,415.98,246.92z"/>
<path class="st6" d="M462.96,259.34c-3.12,0-5.99-0.63-8.6-1.89c-2.61-1.26-4.85-2.99-6.71-5.18c-1.86-2.19-3.3-4.73-4.32-7.62
	c-1.02-2.89-1.53-5.95-1.53-9.2c0-3.43,0.52-6.61,1.58-9.56c1.05-2.94,2.55-5.54,4.5-7.8c1.95-2.25,4.26-4,6.93-5.23
	c2.67-1.23,5.62-1.85,8.87-1.85c3.66,0,6.87,0.81,9.63,2.43c2.76,1.62,5.04,3.81,6.84,6.57v-8.28h10.53v44.61
	c0,4.65-1.14,8.63-3.42,11.93c-2.28,3.31-5.37,5.84-9.27,7.6c-3.9,1.76-8.4,2.64-13.5,2.64c-5.1,0-9.42-0.86-12.96-2.57
	c-3.54-1.71-6.57-4.13-9.09-7.25l6.57-6.39c1.8,2.22,4.06,3.96,6.79,5.22c2.73,1.26,5.62,1.89,8.68,1.89c2.52,0,4.86-0.44,7.02-1.31
	c2.16-0.88,3.87-2.23,5.13-4.07c1.26-1.84,1.89-4.24,1.89-7.22v-5.94c-1.5,2.7-3.68,4.79-6.52,6.25
	C469.16,258.6,466.14,259.34,462.96,259.34z M467.01,249.71c1.38,0,2.65-0.21,3.83-0.63c1.17-0.42,2.26-0.99,3.28-1.72
	c1.02-0.72,1.92-1.58,2.7-2.57c0.78-0.99,1.35-2.03,1.71-3.12v-11.2c-0.66-1.87-1.63-3.49-2.92-4.88c-1.29-1.38-2.73-2.45-4.32-3.21
	c-1.59-0.75-3.25-1.13-5-1.13c-1.8,0-3.46,0.39-4.99,1.17c-1.53,0.78-2.83,1.87-3.92,3.25c-1.08,1.39-1.92,2.95-2.52,4.7
	c-0.6,1.75-0.9,3.55-0.9,5.42c0,1.93,0.34,3.73,1.03,5.42c0.69,1.69,1.62,3.18,2.79,4.47c1.17,1.29,2.57,2.29,4.19,2.98
	C463.59,249.36,465.27,249.71,467.01,249.71z"/>
<path class="st6" d="M526.41,259.34c-3.78,0-7.2-0.64-10.26-1.91c-3.06-1.28-5.67-3.03-7.83-5.25c-2.16-2.22-3.81-4.76-4.95-7.61
	c-1.14-2.85-1.71-5.9-1.71-9.17c0-4.39,1-8.44,3.01-12.15c2.01-3.71,4.86-6.68,8.55-8.9c3.69-2.22,8.11-3.34,13.28-3.34
	c5.1,0,9.48,1.12,13.14,3.34c3.66,2.23,6.48,5.16,8.46,8.78c1.98,3.62,2.97,7.58,2.97,11.85c0,0.77-0.03,1.5-0.09,2.18
	c-0.06,0.68-0.12,1.26-0.18,1.74h-36.36c0.18,2.46,0.86,4.56,2.03,6.29c1.17,1.73,2.67,3.06,4.5,4c1.83,0.94,3.76,1.41,5.8,1.41
	c2.46,0,4.75-0.58,6.89-1.75c2.13-1.17,3.58-2.75,4.36-4.72l10.26,2.88c-1.08,2.4-2.67,4.53-4.77,6.39
	c-2.1,1.86-4.59,3.32-7.47,4.37S529.95,259.34,526.41,259.34z M514.08,231.35h24.66c-0.24-2.35-0.92-4.38-2.03-6.11
	c-1.11-1.73-2.57-3.08-4.37-4.05c-1.8-0.97-3.81-1.45-6.03-1.45c-2.16,0-4.12,0.48-5.89,1.45c-1.77,0.97-3.21,2.32-4.32,4.05
	C515,226.97,514.32,229,514.08,231.35z"/>
<g>
	<path class="st6" d="M161.43,226.9c1.61,0.87,3.49,1.68,5.62,2.44l3.65-11.81c-1.17-0.54-2.13-1.13-2.83-1.79
		c-1.08-1.02-1.62-2.39-1.62-4.12c0-2.33,0.85-4.1,2.56-5.33c1.71-1.22,4.24-1.84,7.61-1.84c1.92,0,3.81,0.24,5.67,0.72
		c1.86,0.48,3.58,1.08,5.17,1.8c1.59,0.72,2.94,1.43,4.05,2.12c1.11,0.69,1.88,1.25,2.3,1.67l5.49-10.08
		c-1.86-1.26-3.96-2.43-6.3-3.51s-4.85-1.95-7.51-2.61c-2.67-0.66-5.51-0.99-8.5-0.99c-4.32,0-8.25,0.76-11.79,2.29
		c-3.54,1.52-6.36,3.76-8.46,6.72c-2.1,2.96-3.15,6.62-3.15,10.98c0,3.23,0.67,5.9,2.03,8.02
		C156.75,223.69,158.76,225.47,161.43,226.9z"/>
	<path class="st6" d="M198.87,230.11c-1.65-2.36-4.02-4.27-7.11-5.73c-1.53-0.73-3.21-1.4-5.01-2.01l-3.72,12.03
		c1.17,0.55,2.18,1.14,2.97,1.78c1.35,1.11,2.03,2.61,2.03,4.53c0,2.14-0.84,3.75-2.52,4.85c-1.68,1.1-4.23,1.65-7.65,1.65
		c-2.4,0-4.77-0.3-7.11-0.9c-2.34-0.6-4.5-1.33-6.48-2.21c-1.98-0.87-3.66-1.74-5.04-2.61c-1.38-0.87-2.34-1.58-2.88-2.12
		l-5.49,10.71c2.52,1.74,5.23,3.23,8.14,4.46c2.91,1.23,5.95,2.18,9.13,2.83c3.18,0.66,6.36,0.99,9.54,0.99
		c3.18,0,6.19-0.34,9.04-1.03c2.85-0.69,5.37-1.79,7.56-3.31c2.19-1.52,3.92-3.48,5.17-5.87s1.89-5.25,1.89-8.6
		C201.34,235.61,200.52,232.46,198.87,230.11z"/>
</g>
<path class="st6" d="M375.67,247.64c-0.42-0.54-0.63-1.44-0.63-2.7v-1.09h-13.42c-0.14,0.19-0.28,0.37-0.44,0.55
	c-0.84,0.94-1.79,1.77-2.83,2.47c-1.05,0.71-2.15,1.25-3.29,1.63c-1.14,0.38-2.31,0.57-3.51,0.57c-1.86,0-3.6-0.34-5.22-1.01
	c-1.62-0.68-3-1.65-4.14-2.91s-2.04-2.74-2.7-4.41c-0.66-1.68-0.99-3.49-0.99-5.43c0-1.88,0.28-3.66,0.85-5.34
	c0.57-1.68,1.41-3.16,2.52-4.46c1.11-1.29,2.41-2.33,3.92-3.09c1.5-0.76,3.18-1.15,5.04-1.15c1.62,0,3.24,0.4,4.86,1.19
	c1.62,0.79,3.09,1.87,4.41,3.22c0.43,0.45,0.81,0.92,1.17,1.4h13.77v-34.35h-12.15v27.36c-1.5-2.64-3.66-4.82-6.48-6.53
	c-2.82-1.71-5.94-2.56-9.36-2.56c-4.08,0-7.71,1.07-10.89,3.2c-3.18,2.14-5.67,5.04-7.47,8.72c-1.8,3.68-2.7,7.74-2.7,12.19
	c0,3.38,0.55,6.54,1.67,9.48c1.11,2.94,2.67,5.52,4.68,7.74c2.01,2.22,4.38,3.95,7.11,5.16c2.73,1.21,5.71,1.82,8.95,1.82
	c3.24,0,6.35-0.78,9.32-2.34s5.32-3.81,7.07-6.75l0.18,2.97c0.18,1.74,0.97,3.15,2.38,4.23c1.41,1.08,3.2,1.59,5.36,1.53
	c1.26,0.06,2.97-0.12,5.13-0.54v-9.81C376.8,248.51,376.08,248.18,375.67,247.64z"/>
<g>
	<path class="st6" d="M567.29,236.27l5.25-9.1c-0.57-0.64-0.86-1.45-0.86-2.47c0-1.24,0.34-2.2,1.04-2.88
		c0.69-0.68,1.59-1.17,2.7-1.46c1.11-0.29,2.29-0.44,3.55-0.44c2.22,0,4.41,0.44,6.57,1.3c2.16,0.87,4.41,2.27,6.75,4.18l4.95-7.74
		c-2.46-2.34-5.19-4.04-8.19-5.09c-3-1.05-6.18-1.57-9.54-1.57c-3.84,0-7.19,0.62-10.04,1.87c-2.85,1.24-5.07,2.98-6.66,5.2
		c-1.59,2.22-2.38,4.87-2.38,7.95c0,2.55,0.6,4.63,1.8,6.26C563.39,233.87,565.09,235.19,567.29,236.27z"/>
	<path class="st6" d="M595.67,237.9c-1.35-1.65-3.32-3.03-5.9-4.12c-0.43-0.18-0.91-0.37-1.37-0.55l-4.99,8.64
		c0.59,0.28,1.09,0.57,1.5,0.9c0.78,0.62,1.17,1.52,1.17,2.71c0,1.62-0.71,2.83-2.12,3.64c-1.41,0.81-3.29,1.22-5.62,1.22
		c-2.58,0-5.22-0.54-7.92-1.62s-5.43-2.76-8.19-5.04l-4.41,7.83c2.58,2.58,5.72,4.53,9.41,5.85c3.69,1.32,7.54,1.98,11.57,1.98
		c5.76,0,10.35-1.3,13.77-3.9s5.13-6.2,5.13-10.81C597.69,241.8,597.02,239.56,595.67,237.9z"/>
</g>
</svg>
